# Blender 3.4.1
# www.blender.org
mtllib bullet.mtl
o bullet
v 0.000000 0.600000 -1.000000
v 0.000000 0.360000 1.000000
v 0.424264 0.424264 -1.000000
v 0.254558 0.254558 1.000000
v 0.600000 0.000000 -1.000000
v 0.360000 -0.000000 1.000000
v 0.424264 -0.424264 -1.000000
v 0.254558 -0.254558 1.000000
v 0.000000 -0.600000 -1.000000
v 0.000000 -0.360000 1.000000
v -0.424264 -0.424264 -1.000000
v -0.254558 -0.254558 1.000000
v -0.600000 0.000000 -1.000000
v -0.360000 -0.000000 1.000000
v -0.424264 0.424264 -1.000000
v -0.254558 0.254558 1.000000
v 0.000000 0.720000 0.333333
v 0.509117 0.509117 0.333333
v 0.720000 0.000000 0.333333
v 0.509117 -0.509117 0.333333
v 0.000000 -0.720000 0.333333
v -0.509117 -0.509117 0.333333
v -0.720000 0.000000 0.333333
v -0.509117 0.509117 0.333333
vn 0.3424 0.8267 0.4464
vn 0.8267 0.3424 0.4464
vn 0.8267 -0.3424 0.4464
vn 0.3424 -0.8267 0.4464
vn -0.3424 -0.8267 0.4464
vn -0.8267 -0.3424 0.4464
vn -0.0000 -0.0000 1.0000
vn -0.8267 0.3424 0.4464
vn -0.3424 0.8267 0.4464
vn -0.0000 -0.0000 -1.0000
vn -0.3814 0.9207 -0.0829
vn -0.9207 0.3814 -0.0829
vn -0.9207 -0.3814 -0.0829
vn -0.3814 -0.9207 -0.0829
vn 0.3814 -0.9207 -0.0829
vn 0.9207 -0.3814 -0.0829
vn 0.9207 0.3814 -0.0829
vn 0.3814 0.9207 -0.0829
vt 0.750000 0.490000
vt 0.000000 0.666667
vt 1.000000 0.666667
vt 1.000000 1.000000
vt 0.250000 0.490000
vt 0.000000 1.000000
vt 0.919706 0.419706
vt 0.875000 0.666667
vt 0.875000 1.000000
vt 0.419706 0.419706
vt 0.990000 0.250000
vt 0.750000 0.666667
vt 0.750000 1.000000
vt 0.490000 0.250000
vt 0.919706 0.080294
vt 0.625000 0.666667
vt 0.625000 1.000000
vt 0.419706 0.080294
vt 0.750000 0.010000
vt 0.500000 0.666667
vt 0.500000 1.000000
vt 0.250000 0.010000
vt 0.580294 0.080294
vt 0.375000 0.666667
vt 0.375000 1.000000
vt 0.080294 0.080294
vt 0.510000 0.250000
vt 0.250000 0.666667
vt 0.010000 0.250000
vt 0.250000 1.000000
vt 0.580294 0.419706
vt 0.125000 0.666667
vt 0.080294 0.419706
vt 0.125000 1.000000
vt 0.000000 0.833333
vt 1.000000 0.833333
vt 0.875000 0.833333
vt 0.750000 0.833333
vt 0.625000 0.833333
vt 0.500000 0.833333
vt 0.375000 0.833333
vt 0.250000 0.833333
vt 0.125000 0.833333
s 0
f 17/36/1 2/4/1 4/9/1 18/37/1
f 18/37/2 4/9/2 6/13/2 19/38/2
f 19/38/3 6/13/3 8/17/3 20/39/3
f 20/39/4 8/17/4 10/21/4 21/40/4
f 21/40/5 10/21/5 12/25/5 22/41/5
f 22/41/6 12/25/6 14/30/6 23/42/6
f 4/10/7 2/5/7 16/33/7 14/29/7 12/26/7 10/22/7 8/18/7 6/14/7
f 23/42/8 14/30/8 16/34/8 24/43/8
f 24/43/9 16/34/9 2/6/9 17/35/9
f 1/1/10 3/7/10 5/11/10 7/15/10 9/19/10 11/23/10 13/27/10 15/31/10
f 15/32/11 24/43/11 17/35/11 1/2/11
f 13/28/12 23/42/12 24/43/12 15/32/12
f 11/24/13 22/41/13 23/42/13 13/28/13
f 9/20/14 21/40/14 22/41/14 11/24/14
f 7/16/15 20/39/15 21/40/15 9/20/15
f 5/12/16 19/38/16 20/39/16 7/16/16
f 3/8/17 18/37/17 19/38/17 5/12/17
f 1/3/18 17/36/18 18/37/18 3/8/18
