# Blender 3.4.1
# www.blender.org
mtllib cursor.mtl
o Plane
v -0.707107 2.192893 -0.000000
v 0.707107 2.707107 0.000000
v -1.414213 2.000000 -0.000000
v 0.000000 3.414213 0.000000
v 0.000000 2.900000 -0.000000
v -0.707107 2.707107 -0.000000
v 1.414213 2.000000 0.000000
v 0.707107 2.192893 0.000000
v -2.192893 0.707107 -0.000000
v -2.707107 -0.707107 -0.000000
v -2.000000 1.414213 -0.000000
v -3.414213 0.000000 -0.000000
v -2.900000 0.000000 -0.000000
v -2.707107 0.707107 -0.000000
v -2.000000 -1.414213 -0.000000
v -2.192893 -0.707107 -0.000000
v 2.192893 -0.707107 0.000000
v 2.707107 0.707107 0.000000
v 2.000000 -1.414213 0.000000
v 3.414213 0.000000 0.000000
v 2.900000 0.000000 0.000000
v 2.707107 -0.707107 0.000000
v 2.000000 1.414213 0.000000
v 2.192893 0.707107 0.000000
v 0.707107 -2.192893 -0.000000
v -0.707107 -2.707107 -0.000000
v 1.414213 -2.000000 -0.000000
v 0.000000 -3.414213 -0.000000
v 0.000000 -2.900000 -0.000000
v 0.707107 -2.707107 -0.000000
v -1.414213 -2.000000 -0.000000
v -0.707107 -2.192893 -0.000000
vn -0.0000 -0.0000 1.0000
vt 0.000000 0.000000
vt 1.000000 0.000000
vt 0.000000 1.000000
vt 1.000000 1.000000
vt 0.500000 0.000000
vt 0.500000 1.000000
vt 1.000000 0.000000
vt 0.500000 0.000000
vt 0.000000 0.000000
vt 1.000000 0.000000
vt 0.000000 1.000000
vt 1.000000 1.000000
vt 0.500000 0.000000
vt 0.500000 1.000000
vt 1.000000 0.000000
vt 0.500000 0.000000
vt 0.000000 0.000000
vt 1.000000 0.000000
vt 0.000000 1.000000
vt 1.000000 1.000000
vt 0.500000 0.000000
vt 0.500000 1.000000
vt 1.000000 0.000000
vt 0.500000 0.000000
vt 0.000000 0.000000
vt 1.000000 0.000000
vt 0.000000 1.000000
vt 1.000000 1.000000
vt 0.500000 0.000000
vt 0.500000 1.000000
vt 1.000000 0.000000
vt 0.500000 0.000000
s 0
f 5/5/1 2/2/1 4/4/1 6/6/1
f 1/1/1 5/5/1 6/6/1 3/3/1
f 2/2/1 5/5/1 8/8/1 7/7/1
f 13/13/1 14/14/1 12/12/1 10/10/1
f 9/9/1 11/11/1 14/14/1 13/13/1
f 10/10/1 15/15/1 16/16/1 13/13/1
f 21/21/1 22/22/1 20/20/1 18/18/1
f 17/17/1 19/19/1 22/22/1 21/21/1
f 18/18/1 23/23/1 24/24/1 21/21/1
f 29/29/1 26/26/1 28/28/1 30/30/1
f 25/25/1 29/29/1 30/30/1 27/27/1
f 26/26/1 29/29/1 32/32/1 31/31/1
